<?xml version="1.0" standalone="no"?><!DOCTYPE svg PUBLIC "-//W3C//DTD SVG 1.1//EN" "http://www.w3.org/Graphics/SVG/1.1/DTD/svg11.dtd"><svg t="1618399815013" class="icon" viewBox="0 0 1195 1024" version="1.1" xmlns="http://www.w3.org/2000/svg" p-id="3111" xmlns:xlink="http://www.w3.org/1999/xlink" width="233.3984375" height="200"><defs><style type="text/css"></style></defs><path d="M597.630404 0.373462c194.016664 0 388.033329 0.167489 582.046186-0.369237 13.029862-0.034259 15.603098 2.55801 15.584065 15.584066-0.464401 330.93109-0.464401 661.865987 0 992.797077 0.019033 13.022249-2.554203 15.595485-15.580258 15.580259-388.033329-0.445368-776.062851-0.445368-1164.096179 0-13.022249 0.015226-15.603098-2.550397-15.584066-15.576452C0.464553 677.454278 0.464553 346.519381 0.000152 15.588291-0.018881 2.562235 2.550549-0.03384 15.584218 0.000419 209.597075 0.537144 403.61374 0.373462 597.630404 0.373462z m314.783654 148.905096l-10.429981-1.141968c-2.862535-2.4362-3.231771-0.654729-3.159446 1.869022-11.434913 22.492976-9.46692 28.225658 15.271927 44.468258-9.09007 9.581117-16.14363 20.441239-8.743673 33.482521 6.425477 11.324522 17.434054 10.342429 28.332242 6.284634 4.678265-1.743405 8.245014 0.540532 11.941185 3.414486 12.74437 9.923707 24.110764 9.276592 33.177995-5.188344 0.491047-0.289299 1.385589-0.563371 1.397009-0.86409 0.030452-0.978286-0.266459-1.964186-0.437755-2.946279l-0.289299-15.38993c2.135481-6.783294 10.022678-6.505415 13.817821-11.252198 5.165505-4.377546 10.437593-8.427729 12.047769-15.801039 1.979412-9.055811 3.037637-20.87138-7.483701-21.065515-16.158856-0.300718-9.318464-9.440274-9.664861-16.425316-2.542783-20.917059-8.739867-24.377224-25.713327-13.741689-3.623847 2.268711-6.90891 2.523751-10.68502 2.162127-9.72196-19.645667-15.18057-20.288976-30.498176-3.589588-0.555758 0.25504-1.58353 0.513886-1.579723 0.761313 0.01142 1.012546 0.338784 2.025091 0.548145 3.037636l-0.719441 11.096129-7.12969 0.82983z m-289.439564 363.305902l4.49555 3.174672c-5.165505 13.262062-16.231181 22.367359-23.813852 33.87079-7.190596 10.909607-19.630441 19.383014-23.737722 29.980483-5.588033 14.411644 14.784687 19.470565 21.179712 30.585727 0.628083 1.092483 0.96306 2.379101 1.686307 3.391647 7.677836 10.776377 5.291121 14.91411-8.130817 18.222012-42.873309 10.56321-86.05495 19.915933-128.25069 33.402583-15.903817 5.08176-31.560206 13.273482-49.199816 12.417006-3.802756-0.186522-7.944295 0.125617-9.246139 4.746783-1.343716 4.781042 1.271392 8.675155 4.053989 12.093447 12.656819 15.565032 26.272892 16.722227 43.6803 4.179606 3.03383-2.184967 6.467349-4.244317 10.030291-5.199764 45.575968-12.219064 91.243294-24.103151 136.792616-36.41738 7.453249-2.013671 11.191293-2.41336 12.226677 7.346665 4.13012 39.028681 0.057098 77.223726-12.46649 114.101699-10.627921 31.30136-11.731824 30.924511-39.645345 12.576881-2.116449-1.389395-4.179605-2.873954-6.375991-4.126313-5.660358-3.220352-12.660626-6.741421-17.274179-0.886929-4.62878 5.865912 0.791765 12.557848 4.899045 16.707001 10.665987 10.764958 23.349452 19.645667 33.303612 30.973996 8.579991 9.767638 17.175208 7.967134 24.974854 2.382908 11.347362-8.12701 20.490724-19.036617 25.104277-32.557526 15.020694-44.019084 23.147704-89.191557 18.610282-135.783877-1.838569-18.869128 6.760454-24.000374 23.513135-24.845431 34.342803-1.735792 67.817711-0.034259 99.100038 16.402476 8.37063 4.400386 17.540638 2.805436 21.587013-5.310154 3.349775-6.722389 4.449871-15.553613-4.259543-21.982896-10.757345-7.940489-21.035062-14.971209-35.244958-16.775519-27.376795-3.479198-54.319641 0.59763-81.144485 3.338355-16.691775 1.70534-30.467723 4.796268-37.574574-15.214829-2.223032-6.254182-7.148724-12.059189-12.13532-16.665129-4.674458-4.316641-4.891432-6.204696-1.313264-11.906926 13.60846-21.689791 31.845699-39.257075 50.296105-56.264795 8.2374-7.594091 19.223139-12.900439 13.562781-25.210861-5.953463-12.949924-18.088783-19.969225-32.823985-16.292085-20.155746 5.028469-39.831866 11.952605-59.884836 17.445474-33.330258 9.128136-63.135639 29.276269-98.734608 31.373685-4.289995 0.251233-10.555597 2.794017-8.618056 7.689255 4.00831 10.114036 12.51217 17.281792 21.389072 23.398937 7.723515 5.321574 14.152798 0.890736 20.684859-3.60862 29.950031-20.662019 64.45271-30.429658 98.704155-40.753054z m-31.564013 446.307987c24.175476 1.884248 51.723566-1.731986 78.932872-7.803452 118.513505-26.444187 210.350622-90.763667 272.645011-195.269023 58.2404-97.70303 71.928798-202.729885 45.385641-312.754756-12.318035-51.057418-35.343929-97.763935-65.906817-140.576339-10.220619-14.31648-25.522999-18.397115-37.555542-10.616502-11.811762 7.63977-13.669365 23.798626-4.305221 38.785062 2.337229 3.741851 5.161698 7.179176 7.689255 10.806829 38.35492 55.001016 58.674348 116.720614 62.61414 182.958602 3.947405 66.401669-10.56321 129.506856-41.312618 189.205169-67.85197 131.729888-219.847995 214.967982-369.883641 192.391263-88.47973-13.315354-163.857273-50.307525-223.16351-118.117623-82.846018-94.718685-110.904187-204.260123-83.515973-326.431733 18.33621-81.795407 62.416199-149.000261 128.692252-201.131129 88.719543-69.785703 188.957743-91.212841 298.906483-70.840121 54.772622 10.148295 103.839208 33.284579 147.736482 67.59693 8.408696 6.573933 17.205661 13.235416 29.25343 7.803452 19.29927-8.701801 21.705017-31.152904 3.684752-45.530289-75.758199-60.43298-163.149252-89.55318-259.219266-88.045782-90.965415 1.427461-173.446003 30.505789-246.870779 85.975012-134.188928 101.372556-193.320063 279.938384-146.019723 443.178994 50.170489 173.145284 214.016342 301.399781 402.212772 298.415436z m159.521599-497.224562c16.611837 2.733112 33.368323 4.830527 49.766993 8.526699 6.041014 1.362749 15.91143 1.712953 16.280666 9.786671 0.266459 5.827847-7.818679 8.903549-13.246836 12.082028-21.046482 12.318035-44.247478 19.493405-66.949815 27.746031-11.914539 4.331868-16.98488 12.386553-12.36752 23.235256 4.407999 10.353849 14.202283 14.719976 25.100471 8.393469 6.722389-3.901726 13.947244-5.234023 20.947511-7.731128 25.736166-9.177621 52.54959-18.06975 71.658532-38.354919 9.135749-9.69912 24.693168-22.46633 13.486649-38.823127-12.455071-18.180141-32.123578-28.564442-53.900919-31.118646-33.714721-3.958825-67.284792-8.058492-101.551464-9.154782-40.734021-1.301844-81.08358 2.257291-120.336848 7.761581-52.854115 7.411376-106.831166 12.702498-157.462249 33.965953-25.804685 10.841089-52.610495 19.147007-75.09205 36.249891-29.116394 22.146578-25.671455 50.749086 7.422796 65.933463 24.39245 11.191293 50.703407 14.164218 76.949653 14.514421 8.541925 0.114197 16.680355 9.847576 24.830204 1.941347 5.679391-5.511902 13.528522-11.678533 9.85519-21.012223-4.956144-12.588301-18.241046-15.336639-28.613928-14.362159-18.819643 1.766245-35.461933-5.390092-53.074895-8.203141-5.846879-0.932608-14.917917-2.154514-15.629744-8.38205-0.787958-6.867038 6.832779-11.587175 13.151672-14.305061 43.402421-18.663574 87.60422-35.979625 134.721846-41.175582 28.435019-3.136607 55.256056-15.321412 83.573071-14.944563 50.151456 0.658535 100.154456-11.705178 150.481014-2.569429zM654.043654 325.20644c0.886929-21.198744-12.477911-45.682552-30.897864-52.614302-20.471691-7.700675-40.924349-8.100364-58.948421 7.498927-18.393308 15.919043-26.200567 40.311493-17.022946 63.592427 9.961773 25.275572 22.622399 49.477694 33.855563 74.26222 4.609747 10.171134 9.470727 10.544177 15.998981 1.701534 16.170276-21.902958 32.747854-43.509005 48.65167-65.598485 6.033401-8.374437 7.852938-18.560797 8.363017-28.842321z m59.287205 53.021603c0 8.930195 0.688988 19.089909-0.175102 29.1202-1.081064 12.531202 4.259543 13.185931 13.193545 8.237401 24.301093-13.46381 48.925743-26.421348 72.617785-40.893897 24.997693-15.271927 34.772945-37.452765 26.908588-56.428477-7.99378-19.291657-33.25032-29.211558-60.429174-23.608298-3.692365 0.761312-7.479895 1.667274-10.848702 3.281257-30.372559 14.563907-47.403118 26.942847-41.26694 80.291814z m-291.213421-31.141484c-1.671081 0.098971-4.841947 0.11039-7.967135 0.494853-26.135855 3.201319-48.427083 21.944831-48.373791 40.596985 0.053292 17.95936 18.796804 33.710914 45.393253 38.712736 21.689791 4.076828 43.863015 5.584227 65.057953 12.337068 10.886768 3.467778 14.209896-0.978286 11.122775-11.374007-4.137733-13.920598-8.229787-27.860228-12.519783-41.735147-8.142236-26.333797-24.114571-38.431051-52.713272-39.032488z" fill="#FCFDFD" p-id="3112"></path><path d="M591.410481 958.892447c-188.196431 2.984345-352.042284-125.270153-402.212772-298.419243-47.300341-163.244416 11.826988-341.810245 146.019723-443.178994 73.424777-55.465417 155.905364-84.547551 246.870779-85.975012 96.070015-1.507399 183.461068 27.612802 259.219266 88.045782 18.024072 14.377385 15.614518 36.828488-3.684752 45.53029-12.047769 5.431964-20.844734-1.22952-29.25343-7.803453-43.893468-34.312351-92.960053-57.444829-147.736482-67.59693-109.94874-20.37272-210.183134 1.054418-298.906483 70.840121-66.272246 52.130868-110.356042 119.335722-128.692252 201.131129-27.388214 122.171611 0.673761 231.713049 83.515973 326.431734 59.306238 67.810097 134.683781 104.806075 223.16351 118.117622 150.035646 22.57672 302.031671-60.661374 369.883641-192.391262 30.749409-59.698314 45.260024-122.8035 41.312618-189.20517-3.939792-66.237987-24.25922-127.957585-62.61414-182.958601-2.527557-3.627654-5.352026-7.064979-7.689255-10.80683-9.364143-14.990242-7.50654-31.149098 4.305221-38.785061 12.032543-7.776806 27.334923-3.699978 37.555542 10.616501 30.562887 42.812404 53.588781 89.518921 65.906817 140.576339 26.543158 110.024871 12.85476 215.051726-45.385641 312.754756-62.294389 104.505356-154.135313 168.824836-272.645011 195.269024-27.209306 6.075273-54.757396 9.691507-78.932872 7.807258z" fill="#059688" p-id="3113"></path><path d="M622.974494 512.58446c-34.251446 10.323396-68.754125 20.094841-98.711768 40.74544-6.528254 4.499356-12.961344 8.934001-20.684859 3.608621-8.876903-6.117145-17.380763-13.284902-21.389072-23.398937-1.941347-4.895239 4.328061-7.438022 8.618056-7.689255 35.598969-2.097416 65.40435-22.245549 98.734608-31.373685 20.052969-5.492869 39.729089-12.417006 59.884835-17.445475 14.731395-3.677139 26.870522 3.342162 32.823986 16.292086 5.660358 12.314228-5.32538 17.620576-13.562781 25.210861-18.450407 17.00772-36.687646 34.575004-50.296105 56.264795-3.578168 5.70223-3.361194 7.590285 1.313263 11.906926 4.986596 4.60594 9.916094 10.414754 12.13532 16.665129 7.106851 20.011097 20.886606 16.920169 37.574575 15.214829 26.824843-2.740725 53.76769-6.817553 81.144485-3.338355 14.209896 1.80431 24.487614 8.838837 35.244958 16.775519 8.709414 6.429283 7.613124 15.260508 4.259543 21.982896-4.046376 8.11559-13.216384 9.71054-21.587014 5.310154-31.282327-16.440542-64.757235-18.138268-99.100038-16.402476-16.756486 0.845057-25.351704 5.980109-23.513134 24.845431 4.537422 46.588514-3.589588 91.764793-18.610282 135.783877-4.613553 13.520909-13.756915 24.434322-25.104277 32.557526-7.799646 5.588033-16.394863 7.38473-24.974854-2.382908-9.950353-11.328329-22.637625-20.205232-33.303612-30.973996-4.107281-4.145346-9.527825-10.837282-4.899045-16.707001 4.61736-5.850686 11.613821-2.333423 17.274179 0.886929 2.196386 1.248552 4.259543 2.733112 6.375991 4.126313 27.91352 18.347629 29.017423 18.720672 39.645344-12.576881 12.523589-36.877974 16.592804-75.073018 12.466491-114.101699-1.031578-9.763832-4.773429-9.364143-12.226677-7.346665-45.549322 12.314228-91.216648 24.194509-136.792616 36.41738-3.562942 0.955447-6.996461 3.014797-10.030291 5.199763-17.411215 12.542622-31.023481 11.389234-43.680301-4.179605-2.77879-3.418293-5.397705-7.312406-4.053988-12.093448 1.301844-4.621166 5.439577-4.933304 9.246139-4.746783 17.639609 0.856476 33.295999-7.331439 49.199815-12.417005 42.195741-13.48665 85.377382-22.839373 128.250691-33.402583 13.421938-3.304096 15.804846-7.445635 8.130817-18.222013-0.723247-1.016352-1.054418-2.299164-1.686307-3.391646-6.398831-11.115161-26.771551-16.170276-21.179712-30.585727 4.107281-10.597469 16.547125-19.070876 23.737721-29.980483 7.582672-11.503431 18.648348-20.608727 23.798627-33.87079 0.11039-1.488366 0.2322-2.980538 0.357817-4.468904-1.606369 0.437755-3.216545 0.867896-4.830528 1.301845z" fill="#0D9F86" p-id="3114"></path><path d="M750.93208 461.667885c-50.326558-9.135749-100.329558 3.227965-150.477207 2.565623-28.317016-0.373043-55.138052 11.811762-83.573071 14.944562-47.121432 5.195957-91.323232 22.512008-134.721847 41.175583-6.3227 2.717885-13.93963 7.438022-13.151672 14.30506 0.715634 6.227536 9.786671 7.449442 15.629744 8.38205 17.612963 2.813049 34.259059 9.969386 53.074896 8.203141 10.372882-0.97448 23.657784 1.773858 28.613927 14.362159 3.673332 9.33369-4.175799 15.500321-9.855189 21.012223-8.149849 7.90623-16.288279-1.82715-24.830205-1.941347-26.246246-0.350204-52.557203-3.323129-76.949653-14.514421-33.094251-15.184376-36.53919-43.786884-7.422796-65.933462 22.481556-17.099077 49.287366-25.408802 75.092051-36.249891 50.631083-21.267263 104.608133-26.558384 157.462248-33.965954 39.253268-5.504289 79.602827-9.063424 120.336848-7.76158 34.266672 1.09629 67.84055 5.195957 101.551464 9.154782 21.777342 2.55801 41.445848 12.938505 53.90092 31.118645 11.206519 16.356797-4.354707 29.124007-13.48665 38.823127-19.108942 20.285169-45.922365 29.173492-71.658532 38.35492-7.000268 2.497105-14.225123 3.829401-20.947511 7.731127-10.898187 6.326506-20.692472 1.960379-25.10047-8.393469-4.61736-10.848702 0.452981-18.903387 12.36752-23.235255 22.702336-8.252627 45.899526-15.427996 66.949814-27.746031 5.431964-3.178479 13.513295-6.254182 13.246836-12.082029-0.369237-8.077525-10.235846-8.427729-16.280666-9.786671-16.402476-3.692365-33.158963-5.789781-49.770799-8.522892z" fill="#139C90" p-id="3115"></path><path d="M654.058881 325.210246c-0.525306 10.277718-2.341036 20.464078-8.374437 28.842321-15.903817 22.093286-32.485201 43.695526-48.65167 65.598485-6.528254 8.842644-11.385427 8.469601-15.998981-1.701533-11.233165-24.784526-23.89379-48.990454-33.855563-74.26222-9.177621-23.280934-1.366556-47.673384 17.022945-63.592427 18.024072-15.599292 38.472923-15.203409 58.948421-7.498927 18.416147 6.927943 31.780987 31.407944 30.909285 52.614301z m-30.406819-1.442687c-0.300718-13.867306-12.165773-25.823717-25.33267-25.526805-13.406712 0.300718-24.552326 12.432232-24.285867 26.44038 0.262653 14.065247 11.800343 25.736166 25.172796 25.473514 13.212577-0.262653 24.738847-12.702498 24.445741-26.387089z" fill="#0E9A8C" p-id="3116"></path><path d="M713.330859 378.228043c-6.136178-53.348968 10.894381-65.727908 41.270747-80.295621 3.368807-1.617789 7.156337-2.519944 10.848702-3.281256 27.178853-5.603259 52.431587 4.316641 60.429173 23.608298 7.864357 18.979519-1.910894 41.15655-26.908587 56.428476-23.692043 14.472549-48.312886 27.430087-72.617786 40.893897-8.934001 4.948531-14.274608 4.293802-13.193544-8.2374 0.860283-10.022678 0.171295-20.186199 0.171295-29.116394z m50.47882-17.057205c17.072431 0.529112 32.949602-11.708985 32.7745-24.556132-0.194135-14.244155-10.901994-17.468314-22.039995-18.458019-14.495389-1.286618-31.347039 12.139127-31.194776 24.681748 0.167489 14.164218 11.077096 16.63087 20.460271 18.332403zM422.117438 347.086559c28.598701 0.605243 44.571036 12.698691 52.717079 39.028681 4.289995 13.874919 8.38205 27.810743 12.519782 41.735147 3.087122 10.391915-0.236007 14.841786-11.122774 11.374008-21.194938-6.752841-43.368162-8.256433-65.057953-12.337068-26.600256-5.001823-45.343768-20.753377-45.393253-38.712737-0.053292-18.648348 22.237936-37.39186 48.373791-40.596985 3.121381-0.380656 6.292247-0.395882 7.963328-0.491046z m-2.862535 59.412821c11.674726-1.990832 24.773106-5.165505 24.594198-20.049163-0.152262-12.580688-11.354975-17.304631-23.048734-17.194241-12.972764 0.12181-25.070018 4.61736-25.096664 19.455339-0.026646 13.113606 11.651887 16.273053 23.5512 17.788065z" fill="#119B8E" p-id="3117"></path><path d="M978.800501 232.470973c-9.067231 14.464936-20.429819 15.108245-33.177996 5.188345-3.696172-2.877761-7.262921-5.157892-11.941185-3.414487-10.898187 4.057795-21.906765 5.039888-28.332242-6.284634-7.399957-13.041282-0.350204-23.901403 8.743674-33.48252l2.805436-3.53249c22.325487-17.875616 39.30656-17.335084 52.587655 2.280131 4.149153 6.128565 6.699549 13.334387 9.984613 20.049163l0.289298 15.38993-0.959253 3.806562z" fill="#0B998C" p-id="3118"></path><path d="M988.19129 148.7228c0.346397 6.985041-6.493995 16.128404 9.664861 16.425316 10.521338 0.194135 9.463113 12.009703 7.483701 21.065515-1.610176 7.373311-6.882264 11.423493-12.047769 15.801039-14.137572 1.004932-18.971906-6.208503-16.547126-19.234558 0.860283-4.621166 4.704911-9.417435-2.489491-12.234291 7.308599-5.572807-8.648509-26.002626 13.935824-21.823021z" fill="#199E93" p-id="3119"></path><path d="M974.251659 170.545821c7.194402 2.820663 3.349775 7.613124 2.489492 12.234291-2.42478 13.026056 2.409554 20.239491 16.547125 19.234558-3.795142 4.746783-11.682339 4.468904-13.81782 11.252198-3.281257-6.714776-5.83546-13.920598-9.984613-20.049163-13.277289-19.611408-30.262169-20.15194-52.583849-2.29155 0.723247-10.372882 5.785974-20.186199 3.89792-30.878832 11.035224 5.253056 22.991635 13.932017 26.931427-7.232468 7.52938-2.226839 7.247694 3.128994 8.671348 8.047072 2.527557 8.739867 7.693062 14.232736 17.84897 9.683894z" fill="#D4EDF1" p-id="3120"></path><path d="M974.251659 170.545821c-10.155908 4.548842-15.321412-0.944027-17.84897-9.680087-1.423654-4.918078-1.141969-10.273911-8.671348-8.047073 0.369237-5.481449-1.876635-11.63666 4.057795-15.675423 3.77611 0.361623 7.061173 0.106584 10.68502-2.162127 16.97346-10.631728 23.170544-7.171563 25.713327 13.741689-22.580526-4.179605-6.623418 16.250214-13.935824 21.823021z" fill="#179D91" p-id="3121"></path><path d="M951.789136 137.139432c-5.93443 4.038762-3.688559 10.19778-4.057795 15.675423-3.939792 21.164485-15.896203 12.485524-26.931427 7.232468l0.300718 0.262652c1.857602-4.267156-0.095164-8.035653-1.556884-11.865054l0.719441-11.096128 1.027771-3.798949c15.317606-16.699388 20.776216-16.056079 30.498176 3.589588z" fill="#139C90" p-id="3122"></path><path d="M920.799914 160.047323c1.888055 10.688826-3.174673 20.502144-3.89792 30.878832-0.936414 1.191454-1.872829 2.371488-2.805436 3.547715-24.735041-16.242601-26.70684-21.975283-15.271927-44.468258l3.159446-1.869022 10.429981 1.141968 8.686574 11.031417-0.300718-0.262652z" fill="#189D93" p-id="3123"></path><path d="M921.100632 160.309975l-8.686574-11.031417 7.12969-0.833637c1.46172 3.829401 3.414486 7.597898 1.556884 11.865054zM921.29096 133.549844l-1.027771 3.798949c-0.209361-1.012546-0.536725-2.021284-0.548145-3.037637-0.003807-0.247427 1.023965-0.506273 1.575916-0.761312zM901.984077 148.13659l-3.159446 1.869022c-0.068518-2.523751 0.296912-4.305222 3.159446-1.869022zM978.800501 232.470973l0.955447-3.810368c0.171295 0.982093 0.468207 1.967993 0.437755 2.946279-0.003807 0.300718-0.902155 0.574791-1.393202 0.864089z" fill="#D4EDF1" p-id="3124"></path><path d="M622.974494 512.58446l4.834334-1.294232c-0.12181 1.488366-0.247427 2.976732-0.357817 4.468904a911.823888 911.823888 0 0 0-4.476517-3.174672z" fill="#FCFDFD" p-id="3125"></path><path d="M623.652062 323.767559c0.296912 13.684591-11.233165 26.128242-24.445741 26.387089-13.372453 0.262653-24.910142-11.412073-25.172796-25.473514-0.262653-14.004342 10.882961-26.135855 24.285867-26.44038 13.166898-0.296912 25.031952 11.6595 25.33267 25.526805z" fill="#EBF8F5" p-id="3126"></path><path d="M763.809679 361.170838c-9.383176-1.701533-20.288976-4.168186-20.460271-18.332403-0.152262-12.542622 16.699388-25.968367 31.194776-24.681748 11.138001 0.9859 21.84586 4.213864 22.039995 18.458019 0.171295 12.847147-15.705875 25.085244-32.7745 24.556132z" fill="#EBF7F5" p-id="3127"></path><path d="M419.254903 406.49938c-11.899313-1.515012-23.577846-4.674458-23.5512-17.791871 0.030452-14.834173 12.127707-19.333529 25.096664-19.455339 11.693759-0.11039 22.900278 4.613553 23.048734 17.194241 0.178908 14.891271-12.915665 18.065944-24.594198 20.052969z" fill="#E9F6F5" p-id="3128"></path></svg>